<svg width="98" height="26" viewBox="0 0 98 26" fill="none" xmlns="http://www.w3.org/2000/svg">
<mask id="mask0_0_1273" style="mask-type:alpha" maskUnits="userSpaceOnUse" x="0" y="0" width="98" height="26">
<path d="M97.9977 14.6425C97.9964 20.9155 92.9107 26 86.6378 26L11.3622 26C5.08926 26 0.00363204 20.9155 0.00226692 14.6425C0.0009857 8.74506 4.51275 3.82739 10.3885 3.32188L45.2285 0.324477C47.1131 0.162338 48.0554 0.0812678 49 0.0812678C49.9446 0.0812679 50.8869 0.162338 52.7715 0.324478L87.6115 3.32188C93.4872 3.82739 97.999 8.74507 97.9977 14.6425Z" fill="url(#paint0_linear_0_1273)"/>
</mask>
<g mask="url(#mask0_0_1273)">
<g filter="url(#filter0_diii_0_1273)">
<path d="M97.9666 15.0211C97.9651 21.8408 92.4363 27.3684 85.6166 27.3684L11.3208 27.3684C4.50118 27.3684 -1.02764 21.8408 -1.02911 15.0211C-1.03036 9.18566 3.05302 4.14571 8.76181 2.93654L41.838 -4.06924C45.1413 -4.76889 46.7929 -5.11872 48.4688 -5.11872C50.1446 -5.11872 51.7963 -4.76889 55.0995 -4.06924L88.1757 2.93655C93.8845 4.14571 97.9679 9.18567 97.9666 15.0211Z" fill="url(#paint1_linear_0_1273)"/>
</g>
<ellipse opacity="0.4" cx="48.4686" cy="21.8947" rx="57.2678" ry="10.6254" transform="rotate(-180 48.4686 21.8947)" fill="url(#paint2_linear_0_1273)"/>
</g>
<defs>
<filter id="filter0_diii_0_1273" x="-23.0291" y="-23.1187" width="142.996" height="76.4871" filterUnits="userSpaceOnUse" color-interpolation-filters="sRGB">
<feFlood flood-opacity="0" result="BackgroundImageFix"/>
<feColorMatrix in="SourceAlpha" type="matrix" values="0 0 0 0 0 0 0 0 0 0 0 0 0 0 0 0 0 0 127 0" result="hardAlpha"/>
<feOffset dy="4"/>
<feGaussianBlur stdDeviation="11"/>
<feComposite in2="hardAlpha" operator="out"/>
<feColorMatrix type="matrix" values="0 0 0 0 0.165114 0 0 0 0 0.204065 0 0 0 0 0.554622 0 0 0 0.25 0"/>
<feBlend mode="normal" in2="BackgroundImageFix" result="effect1_dropShadow_0_1273"/>
<feBlend mode="normal" in="SourceGraphic" in2="effect1_dropShadow_0_1273" result="shape"/>
<feColorMatrix in="SourceAlpha" type="matrix" values="0 0 0 0 0 0 0 0 0 0 0 0 0 0 0 0 0 0 127 0" result="hardAlpha"/>
<feOffset dx="4" dy="6"/>
<feGaussianBlur stdDeviation="4"/>
<feComposite in2="hardAlpha" operator="arithmetic" k2="-1" k3="1"/>
<feColorMatrix type="matrix" values="0 0 0 0 1 0 0 0 0 1 0 0 0 0 1 0 0 0 0.12 0"/>
<feBlend mode="normal" in2="shape" result="effect2_innerShadow_0_1273"/>
<feColorMatrix in="SourceAlpha" type="matrix" values="0 0 0 0 0 0 0 0 0 0 0 0 0 0 0 0 0 0 127 0" result="hardAlpha"/>
<feOffset dy="-4"/>
<feGaussianBlur stdDeviation="2"/>
<feComposite in2="hardAlpha" operator="arithmetic" k2="-1" k3="1"/>
<feColorMatrix type="matrix" values="0 0 0 0 0 0 0 0 0 0 0 0 0 0 0 0 0 0 0.11 0"/>
<feBlend mode="normal" in2="effect2_innerShadow_0_1273" result="effect3_innerShadow_0_1273"/>
<feColorMatrix in="SourceAlpha" type="matrix" values="0 0 0 0 0 0 0 0 0 0 0 0 0 0 0 0 0 0 127 0" result="hardAlpha"/>
<feOffset dy="-4"/>
<feGaussianBlur stdDeviation="11"/>
<feComposite in2="hardAlpha" operator="arithmetic" k2="-1" k3="1"/>
<feColorMatrix type="matrix" values="0 0 0 0 1 0 0 0 0 1 0 0 0 0 1 0 0 0 0.25 0"/>
<feBlend mode="normal" in2="effect3_innerShadow_0_1273" result="effect4_innerShadow_0_1273"/>
</filter>
<linearGradient id="paint0_linear_0_1273" x1="49" y1="37.4286" x2="27.661" y2="-5.7419" gradientUnits="userSpaceOnUse">
<stop stop-color="#F9B021"/>
<stop offset="1" stop-color="#ED5D3F"/>
</linearGradient>
<linearGradient id="paint1_linear_0_1273" x1="48.4687" y1="39.0977" x2="26.3585" y2="-4.93083" gradientUnits="userSpaceOnUse">
<stop stop-color="#F9B021"/>
<stop offset="1" stop-color="#ED5D3F"/>
</linearGradient>
<linearGradient id="paint2_linear_0_1273" x1="48.6073" y1="62.4644" x2="48.6073" y2="21.5728" gradientUnits="userSpaceOnUse">
<stop stop-color="white"/>
<stop offset="1" stop-color="white" stop-opacity="0"/>
</linearGradient>
</defs>
</svg>
