<svg width="98" height="24" viewBox="0 0 98 24" fill="none" xmlns="http://www.w3.org/2000/svg">
<mask id="mask0_0_1269" style="mask-type:alpha" maskUnits="userSpaceOnUse" x="0" y="0" width="98" height="24">
<path d="M0.00228346 10.4506C0.00364816 4.67847 4.68323 0 10.4553 0H87.5447C93.3168 0 97.9964 4.67848 97.9977 10.4506C97.999 15.9036 93.8082 20.4415 88.3722 20.8732L52.4833 23.7234C50.7426 23.8616 49.8722 23.9307 49 23.9307C48.1278 23.9307 47.2574 23.8616 45.5167 23.7234L9.62777 20.8732C4.19181 20.4415 0.000994192 15.9036 0.00228346 10.4506Z" fill="url(#paint0_linear_0_1269)"/>
</mask>
<g mask="url(#mask0_0_1269)">
<g filter="url(#filter0_di_0_1269)">
<path d="M0.0334194 10.0526C0.0348739 3.80267 5.10188 -1.26315 11.3518 -1.26315H87.7107C93.9606 -1.26315 99.0276 3.80268 99.0291 10.0526C99.0303 15.4673 95.1965 20.1244 89.8825 21.1634L59.0276 27.196C52.756 28.4221 46.3064 28.4221 40.0349 27.196L9.18004 21.1634C3.86601 20.1244 0.0321593 15.4673 0.0334194 10.0526Z" fill="#884843"/>
</g>
<ellipse opacity="0.4" cx="49.5314" cy="3.78946" rx="57.2678" ry="9.80805" fill="url(#paint1_linear_0_1269)"/>
</g>
<defs>
<filter id="filter0_di_0_1269" x="-3.96655" y="-2.26315" width="106.996" height="38.3788" filterUnits="userSpaceOnUse" color-interpolation-filters="sRGB">
<feFlood flood-opacity="0" result="BackgroundImageFix"/>
<feColorMatrix in="SourceAlpha" type="matrix" values="0 0 0 0 0 0 0 0 0 0 0 0 0 0 0 0 0 0 127 0" result="hardAlpha"/>
<feOffset dy="4"/>
<feGaussianBlur stdDeviation="2"/>
<feComposite in2="hardAlpha" operator="out"/>
<feColorMatrix type="matrix" values="0 0 0 0 0 0 0 0 0 0 0 0 0 0 0 0 0 0 0.25 0"/>
<feBlend mode="normal" in2="BackgroundImageFix" result="effect1_dropShadow_0_1269"/>
<feBlend mode="normal" in="SourceGraphic" in2="effect1_dropShadow_0_1269" result="shape"/>
<feColorMatrix in="SourceAlpha" type="matrix" values="0 0 0 0 0 0 0 0 0 0 0 0 0 0 0 0 0 0 127 0" result="hardAlpha"/>
<feOffset dy="-4"/>
<feGaussianBlur stdDeviation="0.5"/>
<feComposite in2="hardAlpha" operator="arithmetic" k2="-1" k3="1"/>
<feColorMatrix type="matrix" values="0 0 0 0 0 0 0 0 0 0 0 0 0 0 0 0 0 0 0.11 0"/>
<feBlend mode="normal" in2="shape" result="effect2_innerShadow_0_1269"/>
</filter>
<linearGradient id="paint0_linear_0_1269" x1="49" y1="-10.5494" x2="67.7263" y2="30.4923" gradientUnits="userSpaceOnUse">
<stop stop-color="#F9B021"/>
<stop offset="1" stop-color="#ED5D3F"/>
</linearGradient>
<linearGradient id="paint1_linear_0_1269" x1="49.67" y1="41.2384" x2="49.67" y2="3.49225" gradientUnits="userSpaceOnUse">
<stop stop-color="white"/>
<stop offset="1" stop-color="white" stop-opacity="0"/>
</linearGradient>
</defs>
</svg>
